<?xml version="1.0" encoding="UTF-8"?>
<svg width="512px" height="512px" viewBox="0 0 512 512" version="1.1" xmlns="http://www.w3.org/2000/svg" xmlns:xlink="http://www.w3.org/1999/xlink">

    <g stroke="none" stroke-width="1" fill="none" fill-rule="evenodd">
        <g fill-rule="nonzero">
            <path d="M448,22.5 L64,22.5 C41.1412509,22.5 22.5,41.1412509 22.5,64 L22.5,448 C22.5,470.858749 41.1412509,489.5 64,489.5 L448,489.5 C470.858749,489.5 489.5,470.858749 489.5,448 L489.5,64 C489.5,41.1412509 470.858749,22.5 448,22.5 Z"
                stroke="#000000" stroke-width="45"></path>
            <path d="M144.376045,107 L107,107 L107,163.062357 C107,173.379008 115.373083,181.752091 125.689734,181.752091 L181.752091,181.752091 L181.752091,144.376045 L144.376045,144.376045 L144.376045,107 Z"
                fill="#000000"></path>
            <path d="M256.376045,107 L219,107 L219,163.062357 C219,173.379008 227.373083,181.752091 237.686312,181.752091 L293.748669,181.752091 L293.748669,144.376045 L256.376045,144.376045 L256.376045,107 Z"
                fill="#000000"></path>
            <path d="M368.376045,144.376045 L368.376045,107 L331,107 L331,163.062357 C331,173.379008 339.352553,181.752091 349.689734,181.752091 L405.752091,181.752091 L405.752091,144.376045 L368.376045,144.376045 Z"
                fill="#000000"></path>
            <path d="M144.376045,219 L107,219 L107,275.062357 C107,285.379008 115.373083,293.752091 125.689734,293.752091 L181.752091,293.752091 L181.752091,256.376045 L144.376045,256.376045 L144.376045,219 Z"
                fill="#000000"></path>
            <path d="M256.376045,219 L219,219 L219,275.062357 C219,285.379008 227.373083,293.752091 237.686312,293.752091 L293.748669,293.752091 L293.748669,256.376045 L256.376045,256.376045 L256.376045,219 Z"
                fill="#000000"></path>
            <path d="M368.376045,219 L331,219 L331,275.062357 C331,285.379008 339.352553,293.752091 349.689734,293.752091 L405.752091,293.752091 L405.752091,256.376045 L368.376045,256.376045 L368.376045,219 Z"
                fill="#000000"></path>
            <path d="M144.376045,331 L107,331 L107,387.062357 C107,397.379008 115.373083,405.752091 125.689734,405.752091 L181.752091,405.752091 L181.752091,368.376045 L144.376045,368.376045 L144.376045,331 Z"
                fill="#000000"></path>
            <path d="M256.376045,331 L219,331 L219,387.062357 C219,397.379008 227.373083,405.752091 237.686312,405.752091 L293.748669,405.752091 L293.748669,368.376045 L256.376045,368.376045 L256.376045,331 Z"
                fill="#000000"></path>
            <path d="M368.376045,331 L331,331 L331,387.062357 C331,397.379008 339.352553,405.752091 349.689734,405.752091 L405.752091,405.752091 L405.752091,368.376045 L368.376045,368.376045 L368.376045,331 Z"
                fill="#000000"></path>
        </g>
    </g>
</svg>