<svg viewBox="0 0 512 512" xmlns="http://www.w3.org/2000/svg">
    <defs>
        <linearGradient x1="7.32622429%" y1="92.6738273%" x2="74.9991501%" y2="25.0009738%" id="linearGradient-1">
            <stop stop-color="#FF99B5" offset="0%"></stop>
            <stop stop-color="#FFDC68" offset="100%"></stop>
        </linearGradient>
    </defs>
    <g stroke="none" stroke-width="1" fill="none" fill-rule="evenodd">
        <path d="M448,0 L64,0 C28.714844,0 0,28.714844 0,64 L0,448 C0,483.285156 28.714844,512 64,512 L448,512 C483.285156,512 512,483.285156 512,448 L512,64 C512,28.714844 483.285156,0 448,0 Z"
            fill="#FFF2C6"></path>
        <path d="M490.667969,490.667969 L106.667969,490.667969 C71.382812,490.667969 42.667969,461.953125 42.667969,426.667969 L42.667969,42.667969 C42.667969,26.453125 48.917969,11.796875 58.878906,0.511719 C26.027344,3.179688 2.84217094e-14,30.464844 2.84217094e-14,64 L2.84217094e-14,448 C2.84217094e-14,483.285156 28.714844,512 64,512 L448,512 C467.070312,512 484.054688,503.445312 495.785156,490.15625 C494.058594,490.28125 492.414062,490.667969 490.667969,490.667969 Z"
            fill="#FFEDB4"></path>
        <path d="M128,85.332031 L85.332031,85.332031 L85.332031,149.332031 C85.332031,161.109375 94.890625,170.667969 106.667969,170.667969 L170.667969,170.667969 L170.667969,128 L128,128 L128,85.332031 Z"
            fill="url(#linearGradient-1)"></path>
        <path d="M256,85.332031 L213.332031,85.332031 L213.332031,149.332031 C213.332031,161.109375 222.890625,170.667969 234.664062,170.667969 L298.664062,170.667969 L298.664062,128 L256,128 L256,85.332031 Z"
            fill="url(#linearGradient-1)"></path>
        <path d="M384,128 L384,85.332031 L341.332031,85.332031 L341.332031,149.332031 C341.332031,161.109375 350.867188,170.667969 362.667969,170.667969 L426.667969,170.667969 L426.667969,128 L384,128 Z"
            fill="url(#linearGradient-1)"></path>
        <path d="M128,213.332031 L85.332031,213.332031 L85.332031,277.332031 C85.332031,289.109375 94.890625,298.667969 106.667969,298.667969 L170.667969,298.667969 L170.667969,256 L128,256 L128,213.332031 Z"
            fill="url(#linearGradient-1)"></path>
        <path d="M256,213.332031 L213.332031,213.332031 L213.332031,277.332031 C213.332031,289.109375 222.890625,298.667969 234.664062,298.667969 L298.664062,298.667969 L298.664062,256 L256,256 L256,213.332031 Z"
            fill="url(#linearGradient-1)"></path>
        <path d="M384,213.332031 L341.332031,213.332031 L341.332031,277.332031 C341.332031,289.109375 350.867188,298.667969 362.667969,298.667969 L426.667969,298.667969 L426.667969,256 L384,256 L384,213.332031 Z"
            fill="url(#linearGradient-1)"></path>
        <path d="M128,341.332031 L85.332031,341.332031 L85.332031,405.332031 C85.332031,417.109375 94.890625,426.667969 106.667969,426.667969 L170.667969,426.667969 L170.667969,384 L128,384 L128,341.332031 Z"
            fill="url(#linearGradient-1)"></path>
        <path d="M256,341.332031 L213.332031,341.332031 L213.332031,405.332031 C213.332031,417.109375 222.890625,426.667969 234.664062,426.667969 L298.664062,426.667969 L298.664062,384 L256,384 L256,341.332031 Z"
            fill="url(#linearGradient-1)"></path>
        <path d="M384,341.332031 L341.332031,341.332031 L341.332031,405.332031 C341.332031,417.109375 350.867188,426.667969 362.667969,426.667969 L426.667969,426.667969 L426.667969,384 L384,384 L384,341.332031 Z"
            fill="url(#linearGradient-1)"></path>
    </g>
</svg>