<svg viewBox="0 0 1229 1229" xmlns="http://www.w3.org/2000/svg">
    <linearGradient id="a" gradientUnits="userSpaceOnUse" x1="227.3587385544" x2="1001.640383822" y1="688.2738557656"
        y2="-86.0140890736">
        <stop offset="0" stop-color="#ff99b5" />
        <stop offset="1" stop-color="#ffdc68" />
    </linearGradient>
    <path d="m0 409.707031v768.125c0 28.28125 22.925781 51.207031 51.207031 51.207031h1126.585938c28.28125 0 51.207031-22.925781 51.207031-51.207031v-768.125zm0 0"
        fill="#fff6d9" />
    <path d="m1075.375 51.25h-921.75c-84.804688.09375-153.53125 68.820312-153.625 153.625v256.042969h1228.996094v-256.042969c-.09375-84.804688-68.816406-153.53125-153.621094-153.625zm-716.917969 307.25c-56.5625 0-102.417969-45.851562-102.417969-102.417969 0-56.5625 45.851563-102.417969 102.417969-102.417969 56.566407 0 102.417969 45.851563 102.417969 102.417969 0 56.566407-45.851562 102.417969-102.417969 102.417969zm512.082031 0c-56.5625 0-102.414062-45.851562-102.414062-102.417969 0-56.5625 45.851562-102.417969 102.414062-102.417969 56.566407 0 102.417969 45.851563 102.417969 102.417969 0 56.566407-45.851562 102.417969-102.417969 102.417969zm0 0"
        fill="url(#a)" />
    <path d="m307.25.0429688h102.417969v256.0390622h-102.417969zm0 0" fill="#ffdc68" />
    <path d="m819.332031.0429688h102.417969v256.0390622h-102.417969zm0 0" fill="#ffdc68" />
    <g fill="#ffe58e">
        <path d="m307.25 614.539062h102.417969v102.421876h-102.417969zm0 0" />
        <path d="m563.289062 614.539062h102.417969v102.421876h-102.417969zm0 0" />
        <path d="m819.332031 614.539062h102.417969v102.421876h-102.417969zm0 0" />
        <path d="m307.25 819.375h102.417969v102.417969h-102.417969zm0 0" />
        <path d="m563.289062 819.375h102.417969v102.417969h-102.417969zm0 0" />
        <path d="m819.332031 819.375h102.417969v102.417969h-102.417969zm0 0" />
        <path d="m307.25 1024.207031h102.417969v102.417969h-102.417969zm0 0" />
        <path d="m563.289062 1024.207031h102.417969v102.417969h-102.417969zm0 0" />
        <path d="m819.332031 1024.207031h102.417969v102.417969h-102.417969zm0 0" />
    </g>
</svg>