<svg viewBox="0 0 1214 1214" xmlns="http://www.w3.org/2000/svg">
    <linearGradient id="a" gradientUnits="userSpaceOnUse" x1="171.2383436995" x2="750.5921066616" y1="750.5504778826"
        y2="171.1967149205">
        <stop offset="0" stop-color="#ff99b5" />
        <stop offset="1" stop-color="#ffdc68" />
    </linearGradient>
    <path d="m731.933594 804.339844 72.421875-72.421875 409.65625 409.65625-72.421875 72.421875zm0 0" fill="#ffdc68" />
    <path d="m870.582031 460.875c0 226.25-183.414062 409.664062-409.667969 409.664062-226.25 0-409.664062-183.414062-409.664062-409.664062 0-226.253906 183.414062-409.667969 409.664062-409.667969 226.253907 0 409.667969 183.414063 409.667969 409.667969zm0 0"
        fill="url(#a)" />
    <path d="m460.914062 921.746094c-254.53125 0-460.8710932-206.339844-460.8710932-460.871094s206.3398432-460.875 460.8710932-460.875c254.535157 0 460.875 206.339844 460.875 460.875-.285156 254.414062-206.457031 460.585938-460.875 460.871094zm0-819.328125c-197.96875 0-358.457031 160.488281-358.457031 358.457031s160.488281 358.457031 358.457031 358.457031c197.972657 0 358.457032-160.488281 358.457032-358.457031-.21875-197.878906-160.578125-358.238281-358.457032-358.457031zm0 0"
        fill="#fff2c6" />
    <g fill="#fff">
        <path d="m460.914062 153.625c-113.070312.125-204.707031 91.757812-204.832031 204.832031h102.417969c0-56.5625 45.851562-102.417969 102.417969-102.417969 56.5625 0 102.417969 45.851563 102.417969 102.417969 0 56.566407-45.855469 102.417969-102.417969 102.417969-28.28125 0-51.210938 22.925781-51.210938 51.207031v102.417969h102.417969v-57.695312c109.546875-28.238282 175.457031-139.933594 147.21875-249.476563-23.332031-90.503906-104.964844-153.738281-198.429688-153.703125zm0 0" />
        <path d="m512.125 716.914062c0 28.28125-22.929688 51.210938-51.210938 51.210938s-51.207031-22.929688-51.207031-51.210938 22.925781-51.207031 51.207031-51.207031 51.210938 22.925781 51.210938 51.207031zm0 0" />
    </g>
</svg>