<svg viewBox="0 0 504.06735 504" xmlns="http://www.w3.org/2000/svg" xmlns:xlink="http://www.w3.org/1999/xlink">
    <linearGradient id="a">
        <stop offset="0" stop-color="#ff99b5" />
        <stop offset="1" stop-color="#ffdc68" />
    </linearGradient>
    <linearGradient id="b" gradientUnits="userSpaceOnUse" x1="45.25573201" x2="135.76517848" xlink:href="#a" y1="458.83590799"
        y2="368.32646152" />
    <linearGradient id="c" gradientUnits="userSpaceOnUse" x1="135.76617848" x2="196.10758724" xlink:href="#a" y1="489.00361237"
        y2="428.66220361" />
    <linearGradient id="d" gradientUnits="userSpaceOnUse" x1="15.08702763" x2="75.42843639" xlink:href="#a" y1="368.32646152"
        y2="307.98505276" />
    <path d="m497.804688 247.640625-241.355469-241.355469c-8.332031-8.332031-21.839844-8.332031-30.171875 0l-181.027344 181.019532c-8.332031 8.332031-8.332031 21.835937 0 30.167968l241.359375 241.359375c8.332031 8.332031 21.839844 8.332031 30.171875 0l181.015625-181.019531c8.335937-8.328125 8.339844-21.835938.007813-30.171875zm0 0"
        fill="#ffe58e" />
    <path d="m301.703125 181.054688h-241.359375c-8.632812-.003907-16.414062 5.191406-19.71875 13.164062s-1.480469 17.152344 4.625 23.253906l241.359375 241.359375c6.101563 6.101563 15.277344 7.929688 23.25 4.625 7.972656-3.300781 13.167969-11.082031 13.167969-19.710937v-241.359375c0-11.777344-9.546875-21.328125-21.324219-21.332031zm0 0"
        fill="#ffedb4" />
    <path d="m497.804688 247.640625-241.355469-241.355469c-6.492188-6.496094-16.414063-8.105468-24.625-4-8.214844 4.105469-12.878907 13.007813-11.582031 22.101563l30.167968 211.199219c1.34375 9.386718 8.71875 16.757812 18.101563 18.101562l211.199219 30.167969c9.097656 1.300781 18-3.363281 22.105468-11.582031 4.109375-8.21875 2.492188-18.140626-4.011718-24.632813zm0 0"
        fill="#fff6d9" />
    <path d="m30.167969 443.75 90.507812-90.507812 30.171875 30.167968-90.507812 90.507813zm0 0" fill="url(#b)" />
    <path d="m120.683594 473.914062 60.339844-60.335937 30.167968 30.167969-60.339844 60.339844zm0 0" fill="url(#c)" />
    <path d="m0 353.242188 60.335938-60.34375 30.171874 30.171874-60.335937 60.339844zm0 0" fill="url(#d)" />
</svg>